<svg width="15" height="15" viewBox="0 0 15 15" fill="none" xmlns="http://www.w3.org/2000/svg">
<path fill-rule="evenodd" clip-rule="evenodd" d="M14.2745 7.15325C14.2745 6.69928 14.2322 6.25634 14.145 5.79912L14.1109 5.62328H14.1064C13.7163 3.90429 12.6928 2.35097 11.2774 1.33986C11.18 1.27 11.045 1.29271 10.975 1.38982C10.9055 1.48693 10.9276 1.6221 11.0249 1.69153C12.3991 2.67344 13.3805 4.20081 13.7187 5.88195L13.7275 5.92586C13.8042 6.34004 13.8413 6.74188 13.8413 7.15325C13.8413 7.27264 13.9381 7.36953 14.0579 7.36953C14.1777 7.36953 14.2745 7.27264 14.2745 7.15325M1.75298 3.12092C2.75221 1.78409 4.20785 0.872907 5.85237 0.555191C6.26892 0.473653 6.69846 0.43256 7.12865 0.43256C8.1541 0.43256 9.14294 0.662033 10.0685 1.11428C10.1764 1.16683 10.3061 1.12271 10.3583 1.01522C10.4108 0.907944 10.3664 0.778392 10.2589 0.725836C9.27377 0.24418 8.22082 0 7.12865 0C6.67052 0 6.21303 0.0439049 5.76963 0.130633C4.0194 0.468895 2.46975 1.43891 1.40575 2.86225C1.33405 2.95806 1.35398 3.09345 1.44972 3.16483C1.48871 3.19381 1.53398 3.20787 1.57904 3.20787C1.64532 3.20787 1.71052 3.1778 1.75298 3.12092M0.438356 8.95919C0.554677 8.93129 0.626376 8.8145 0.59865 8.69835C0.594318 8.6804 0.589985 8.66526 0.58587 8.6512H0.586303L0.540814 8.39318C0.25142 6.93135 0.47908 5.39057 1.17246 4.05439C1.22748 3.94841 1.19715 3.81778 1.09101 3.76284C0.984654 3.70791 0.876347 3.74943 0.821328 3.85541C0.0865775 5.27096 -0.238558 6.90301 0.194667 8.45352V8.45461C0.194667 8.61833 0.182537 8.67846 0.205931 8.74637C0.210913 8.76108 0.171923 8.77686 0.177338 8.79957C0.201166 8.89841 0.289977 8.96546 0.387886 8.96546C0.404565 8.96503 0.421461 8.96286 0.438356 8.95919M5.56341 13.9732C7.29501 11.669 7.82593 9.61408 7.33985 7.10199C7.31711 6.98477 7.20295 6.90799 7.08598 6.9307C6.96858 6.95341 6.8919 7.06674 6.91442 7.18418C7.38187 9.5957 6.88973 11.4873 5.21705 13.7135C5.14513 13.8091 5.16463 13.9447 5.26037 14.016C5.29936 14.0452 5.34507 14.0593 5.39012 14.0593C5.45597 14.0599 5.52095 14.0301 5.56341 13.9732M6.51153 14.1432C8.2037 11.7548 8.70581 9.59981 8.19027 6.93805C8.13525 6.65386 7.97258 6.40816 7.73257 6.24617C7.49321 6.08461 7.2049 6.026 6.92136 6.08115C6.63738 6.13608 6.39174 6.29808 6.22971 6.53772C6.0679 6.77714 6.00898 7.06544 6.064 7.34898C6.25701 8.34582 6.25765 9.24641 6.06617 10.1022C6.04018 10.2188 6.11361 10.3343 6.23036 10.3603C6.34777 10.3864 6.463 10.3129 6.489 10.1963C6.6937 9.28166 6.69391 8.32289 6.48943 7.26636C6.45651 7.09593 6.49181 6.92291 6.58886 6.77908C6.6859 6.63526 6.83319 6.53815 7.00389 6.50506C7.17436 6.47218 7.34678 6.50722 7.49018 6.6039C7.63445 6.70101 7.73192 6.84851 7.7655 7.01937C8.25634 9.55417 7.77568 11.6101 6.15823 13.8928C6.08913 13.9903 6.11231 14.125 6.21 14.1945C6.24812 14.2213 6.29166 14.2343 6.33499 14.2343C6.40235 14.2343 6.46929 14.2027 6.51153 14.1432M4.69025 13.689C5.3403 12.8563 5.81035 12.084 6.12704 11.3272C6.17318 11.2169 6.12097 11.0902 6.0105 11.0441C5.89959 10.9976 5.77309 11.0498 5.72717 11.1603C5.42565 11.8809 4.97466 12.621 4.34865 13.4228C4.275 13.5171 4.2919 13.6527 4.38634 13.726C4.42598 13.7569 4.47277 13.7719 4.51934 13.7719C4.58389 13.7723 4.64757 13.7437 4.69025 13.689M3.88878 13.3058C5.44233 11.3694 5.97108 9.80095 5.71331 7.89249C5.69728 7.77376 5.58746 7.69222 5.46962 7.70714C5.35113 7.72315 5.26795 7.83194 5.28398 7.95046C5.52745 9.75185 5.04138 11.1778 3.55086 13.0356C3.47592 13.1291 3.49108 13.2653 3.58444 13.3395C3.6243 13.3715 3.67217 13.3871 3.71982 13.3871C3.78307 13.3869 3.84611 13.3596 3.88878 13.3058M9.029 8.86749C9.14878 8.86749 9.24409 8.77362 9.24236 8.65467C9.23305 8.04584 9.16568 7.41689 9.04048 6.77325C8.86329 5.85881 8.05944 5.19527 7.12822 5.19527C7.00367 5.19527 6.87847 5.20738 6.7563 5.23095C6.24488 5.33001 5.80277 5.62199 5.51121 6.05303C5.37128 6.26023 5.27358 6.48905 5.22095 6.73323C5.19582 6.85002 5.27012 6.96509 5.38709 6.99017C5.50449 7.01461 5.6193 6.94086 5.64443 6.82429C5.68537 6.63418 5.76161 6.45575 5.87035 6.29462C6.09693 5.95938 6.44091 5.73186 6.83883 5.65486C6.93392 5.63648 7.0314 5.62631 7.12822 5.62631C7.85214 5.62631 8.4775 6.14106 8.61527 6.85219C8.73505 7.47118 8.80025 8.07763 8.80914 8.66115C8.81087 8.77946 8.90726 8.8677 9.02575 8.8677C9.02661 8.86749 9.02791 8.86749 9.029 8.86749M7.5322 14.1761C8.47317 12.7294 9.01318 11.3102 9.18279 9.83729C9.19622 9.71855 9.11131 9.61127 8.99239 9.59786C8.87304 9.58445 8.76603 9.66945 8.7526 9.78797C8.59057 11.1927 8.07244 12.551 7.16873 13.9403C7.10353 14.0407 7.13212 14.1746 7.23241 14.2397C7.26902 14.2632 7.30996 14.2745 7.35025 14.2745C7.42108 14.2745 7.49105 14.2399 7.5322 14.1761M8.63368 14.0459C10.0163 11.68 10.4162 9.3167 9.89155 6.60844C9.73754 5.81447 9.24648 5.12368 8.54487 4.71361C8.44176 4.65305 8.30898 4.68766 8.24876 4.79082C8.18832 4.89399 8.22298 5.02635 8.32609 5.08669C8.92026 5.43404 9.33572 6.01864 9.46634 6.69063C9.96953 9.28988 9.58656 11.5578 8.25981 13.8279C8.1998 13.9313 8.23468 14.0636 8.33757 14.1235C8.3718 14.1439 8.40949 14.1532 8.44674 14.1532C8.52082 14.1532 8.59339 14.1153 8.63368 14.0459M3.15901 12.8319C4.71494 10.917 5.1564 9.49773 4.78815 7.59576C4.66707 6.97114 4.7966 6.33701 5.15315 5.81015C5.50969 5.28307 6.04992 4.92643 6.67485 4.80531C6.88843 4.76357 7.11003 4.75319 7.32469 4.77027C7.44274 4.77979 7.54845 4.69112 7.55798 4.57216C7.56773 4.45321 7.47892 4.34874 7.35956 4.33923C7.10591 4.31868 6.84424 4.33166 6.5921 4.38054C5.85367 4.52328 5.2151 4.94503 4.794 5.5677C4.37291 6.19015 4.21976 6.93956 4.36273 7.67751C4.70303 9.43522 4.28561 10.7582 2.82261 12.5587C2.74723 12.6517 2.76131 12.788 2.85424 12.8628C2.89431 12.8953 2.94262 12.9115 2.99049 12.9115C3.05374 12.9119 3.11612 12.8847 3.15901 12.8319M9.81357 13.6975C10.1376 13.0499 10.3986 12.3823 10.5895 11.7129C10.622 11.598 10.5555 11.4784 10.4404 11.4458C10.3252 11.4127 10.2054 11.4797 10.1729 11.5946C9.98967 12.2382 9.73884 12.8803 9.42648 13.5039C9.37298 13.6107 9.41608 13.7407 9.52309 13.7941C9.5545 13.8093 9.58742 13.8166 9.61992 13.8166C9.6992 13.8171 9.77544 13.7736 9.81357 13.6975M10.8477 10.5657C11.0613 9.26263 11.0268 7.91412 10.742 6.44407C10.4073 4.71707 8.88777 3.46351 7.12909 3.46351C6.89363 3.46351 6.65774 3.48622 6.42813 3.53099C5.46225 3.71742 4.62721 4.26894 4.07658 5.08366C3.52574 5.89796 3.32559 6.87792 3.51252 7.84318C3.60697 8.33068 3.63231 8.73988 3.59245 9.13135C3.58032 9.2503 3.66697 9.35628 3.78589 9.36861C3.90676 9.37834 4.01117 9.29421 4.0233 9.17525C4.06792 8.74053 4.04062 8.2911 3.93795 7.76078C3.77267 6.90907 3.94943 6.04438 4.43551 5.32568C4.92137 4.60698 5.65807 4.12035 6.51066 3.95576C6.71319 3.91618 6.92136 3.89629 7.12887 3.89629C8.6809 3.89629 10.0215 5.00234 10.3168 6.52647C10.5916 7.94548 10.6252 9.24403 10.4201 10.4961C10.4008 10.6139 10.4805 10.7251 10.599 10.7441C10.6109 10.7463 10.6222 10.7472 10.6341 10.7472C10.7383 10.7467 10.8303 10.6717 10.8477 10.5657M2.49769 12.2717C3.07128 11.5621 3.47007 10.9323 3.71636 10.3471C3.76271 10.2368 3.71094 10.11 3.60047 10.0637C3.48978 10.0177 3.36328 10.0691 3.31692 10.179C3.08666 10.7264 2.70824 11.322 2.16043 12.0001C2.08526 12.0931 2.09999 12.2293 2.19292 12.3042C2.23299 12.3362 2.28108 12.352 2.32874 12.352C2.3922 12.352 2.45502 12.3245 2.49769 12.2717M1.90547 11.6255C3.31865 9.84377 3.28183 8.93194 3.0871 7.92515C2.87806 6.84678 3.10183 5.75132 3.71722 4.84078C3.93817 4.5142 4.20352 4.22136 4.50634 3.97069C4.5984 3.89434 4.61118 3.75808 4.53472 3.66616C4.45825 3.57425 4.32179 3.5617 4.22973 3.63783C3.89528 3.91467 3.60198 4.23801 3.35808 4.59876C2.67791 5.6049 2.43076 6.81542 2.66167 8.00691C2.84102 8.93323 2.86745 9.71574 1.56583 11.3567C1.49153 11.4505 1.50734 11.5863 1.60135 11.6605C1.64121 11.6921 1.68843 11.7072 1.73565 11.7072C1.79955 11.7075 1.8628 11.6793 1.90547 11.6255M11.0582 13.054C11.9047 10.9215 12.0744 8.76886 11.5924 6.27926C11.4689 5.64059 11.2146 5.04755 10.8371 4.51636C10.7677 4.41904 10.6328 4.39611 10.5349 4.46532C10.4374 4.53453 10.4142 4.66949 10.4838 4.76703C10.8254 5.24739 11.0554 5.78398 11.167 6.36166C11.6327 8.76648 11.4702 10.8423 10.6555 12.8951C10.6116 13.006 10.6659 13.1319 10.7773 13.1758C10.8035 13.1862 10.8301 13.1909 10.8568 13.1909C10.943 13.1909 11.0246 13.1392 11.0582 13.054M10.0451 3.93911C10.1214 3.84697 10.1082 3.7105 10.0155 3.63459C9.20272 2.96585 8.17771 2.59752 7.12866 2.59752C6.83753 2.59752 6.54618 2.62542 6.26307 2.68079C5.91649 2.74784 5.57684 2.85533 5.25387 3.00067C5.14492 3.04977 5.09618 3.1778 5.14535 3.28659C5.1943 3.39538 5.32232 3.44404 5.43171 3.39495C5.72414 3.26345 6.03173 3.16612 6.34582 3.10535C6.60185 3.05539 6.86525 3.03008 7.12866 3.03008C8.0772 3.03008 9.00474 3.36337 9.73992 3.96831C9.78021 4.00161 9.82873 4.01784 9.87747 4.01784C9.94007 4.01784 10.0018 3.99102 10.0451 3.93911M12.3718 6.99774C12.49 6.97958 12.5713 6.86906 12.5529 6.75097C12.5206 6.54053 12.4846 6.32879 12.443 6.11489C11.9509 3.57511 9.71609 1.73176 7.12865 1.73176C6.78229 1.73176 6.43549 1.76506 6.09866 1.83081C4.67855 2.10549 3.45036 2.91632 2.64044 4.11408C2.20852 4.75276 1.92302 5.45891 1.79175 6.21265C1.77117 6.3303 1.85024 6.44234 1.96808 6.46288C2.08721 6.48343 2.19812 6.40449 2.2187 6.28683C2.33935 5.59344 2.6021 4.94395 2.99937 4.3561C3.74452 3.25415 4.87437 2.5082 6.18119 2.25537C6.49138 2.19503 6.81002 2.16432 7.12865 2.16432C9.50901 2.16432 11.5651 3.86038 12.0178 6.19707C12.0581 6.40578 12.0932 6.61212 12.1246 6.81737C12.1409 6.92421 12.2333 7.00056 12.3384 7.00056C12.3495 7.00034 12.3605 6.99947 12.3718 6.99774M12.3304 11.9947C12.6794 10.6832 12.7957 9.34655 12.6869 7.9085C12.6778 7.78933 12.5739 7.70065 12.4549 7.70909C12.3354 7.71796 12.2459 7.82177 12.255 7.94072C12.3603 9.32989 12.2481 10.6196 11.9119 11.8833C11.8811 11.9986 11.9502 12.1173 12.0657 12.148C12.0843 12.1528 12.1034 12.1552 12.1216 12.1552C12.2173 12.1554 12.3048 12.0914 12.3304 11.9947M1.38604 10.8832C2.49423 9.42159 2.36902 8.77448 2.23646 8.08888C2.19184 7.85962 2.16324 7.62344 2.15111 7.38597C2.14526 7.26636 2.04541 7.17466 1.92389 7.18093C1.80453 7.18699 1.71247 7.28864 1.71854 7.40781C1.73153 7.66518 1.76273 7.92212 1.81103 8.17106C1.9345 8.80952 2.03219 9.31389 1.04054 10.6217C0.968407 10.7169 0.987036 10.8527 1.08256 10.9245C1.12177 10.9542 1.16769 10.9684 1.21318 10.9684C1.2786 10.9691 1.34336 10.9394 1.38604 10.8832M0.946313 10.0168C1.55413 9.12291 1.47615 8.71998 1.38604 8.25368C1.08906 6.72134 1.40726 5.16499 2.28173 3.8712C3.15641 2.57741 4.48295 1.70169 6.017 1.40517C6.6233 1.28665 7.25819 1.26546 7.88702 1.34807C8.00637 1.36213 8.11468 1.28016 8.12984 1.16186C8.14544 1.04334 8.06226 0.934763 7.94334 0.919191C7.2688 0.830516 6.58561 0.853225 5.93447 0.980614C4.28713 1.29919 2.86225 2.2398 1.9228 3.6294C0.983571 5.01878 0.641756 6.69041 0.960826 8.33609C1.04162 8.75351 1.09491 9.02883 0.588252 9.77392C0.520886 9.87276 0.546879 10.0075 0.645871 10.0745C0.683129 10.0998 0.725368 10.112 0.767391 10.112C0.836274 10.1117 0.90429 10.0787 0.946313 10.0168M13.3149 10.4762C13.308 10.4762 13.3006 10.4757 13.2926 10.4753C13.1737 10.4628 13.0872 10.3568 13.0989 10.2378C13.2345 8.90966 13.1585 7.53433 12.868 6.03227C12.4669 3.96377 10.972 2.26445 8.96683 1.59723C8.85354 1.55938 8.79202 1.43697 8.82993 1.32363C8.86784 1.21052 8.98957 1.14888 9.10395 1.18695C11.2569 1.90327 12.8626 3.72867 13.2932 5.9503C13.5924 7.49454 13.6699 8.91139 13.5302 10.282C13.5194 10.3933 13.4249 10.4762 13.3149 10.4762" fill="#3629B7"/>
</svg>
