<svg width="5" height="5" viewBox="0 0 5 5" fill="none" xmlns="http://www.w3.org/2000/svg">
<g clip-path="url(#clip0_5109_13572)">
<path d="M4.39256 1.90056L2.34803 0.227768C2.31483 0.200622 2.27327 0.185791 2.23038 0.185791C2.18749 0.185791 2.14593 0.200622 2.11273 0.227768L0.0682049 1.90056C0.0309064 1.93203 0.00748127 1.97691 0.00298747 2.0255C-0.00150633 2.0741 0.0132918 2.12251 0.0441865 2.16028C0.0750813 2.19806 0.119594 2.22217 0.168113 2.22741C0.216632 2.23265 0.265265 2.21859 0.303511 2.18828L0.557589 1.98048V4.08894C0.557589 4.13824 0.577172 4.18551 0.612028 4.22037C0.646885 4.25523 0.69416 4.27481 0.743455 4.27481H1.85865V3.15961H2.60211V4.27481H3.71731C3.7666 4.27481 3.81388 4.25523 3.84873 4.22037C3.88359 4.18551 3.90317 4.13824 3.90317 4.08894V1.98048L4.15725 2.18828C4.17609 2.20417 4.1979 2.21616 4.22142 2.22355C4.24493 2.23094 4.26968 2.23357 4.29423 2.2313C4.31877 2.22903 4.34262 2.2219 4.36438 2.21033C4.38614 2.19876 4.40538 2.18297 4.42099 2.16389C4.43659 2.14481 4.44824 2.12282 4.45527 2.09919C4.46229 2.07557 4.46455 2.05078 4.4619 2.02627C4.45926 2.00177 4.45176 1.97803 4.43986 1.95645C4.42795 1.93487 4.41187 1.91587 4.39256 1.90056Z" fill="white"/>
</g>
<defs>
<clipPath id="clip0_5109_13572">
<rect width="4.46078" height="4.46078" fill="white"/>
</clipPath>
</defs>
</svg>
