<svg width="11" height="4" viewBox="0 0 11 4" fill="none" xmlns="http://www.w3.org/2000/svg">
<path fill-rule="evenodd" clip-rule="evenodd" d="M2.12003 2.34736L2.94523 0V0.000379163H3.8364L2.51213 3.45156H1.62097L0.865326 0.481575C1.39918 0.76989 1.87755 1.35031 2.03013 1.88444L2.12003 2.34736ZM4.176 0L3.64905 3.45501H4.49131L5.01793 0H4.176ZM6.71657 1.40738C6.42223 1.25423 6.2418 1.15087 6.2418 0.994242C6.2454 0.851828 6.39438 0.705926 6.72707 0.705926C7.00071 0.698684 7.20184 0.766441 7.35442 0.833856L7.43086 0.869801L7.54536 0.146926C7.379 0.07917 7.11522 0.00451278 6.7894 0.00451278C5.95765 0.00451278 5.37197 0.460153 5.36834 1.11182C5.36147 1.59271 5.78765 1.85957 6.1066 2.01965C6.43242 2.18387 6.54333 2.29034 6.54333 2.43624C6.53973 2.66025 6.27987 2.76361 6.0374 2.76361C5.70143 2.76361 5.52096 2.71037 5.24699 2.58555L5.13609 2.53232L5.0183 3.28355C5.21615 3.37622 5.58001 3.45778 5.95769 3.46195C6.84162 3.46195 7.41679 3.01321 7.42402 2.3187C7.4269 1.93771 7.20216 1.64591 6.71657 1.40738ZM9.05302 0.0106932H9.70466L10.3838 3.45778H9.60423L9.47791 2.76948H8.48897L8.24553 3.45501H7.36159L8.61269 0.288658C8.69964 0.0715489 8.85222 0.0106932 9.05302 0.0106932ZM8.73419 2.07725C8.75217 2.07551 9.07339 0.958411 9.07339 0.958411L9.32998 2.07725H8.73419Z" fill="white"/>
<path d="M1.75226 0.47041C1.69195 0.191868 1.4996 0.00400895 1.23836 0H0.0126232L0 0.0675909C0.956157 0.347576 1.75871 1.2091 2.01907 2.01947L1.75226 0.47041Z" fill="white"/>
</svg>
