<svg width="6" height="6" viewBox="0 0 6 6" fill="none" xmlns="http://www.w3.org/2000/svg">
<g clip-path="url(#clip0_1009_79062)">
<path d="M4.87452 4.12209C4.61016 3.6852 4.46732 3.18561 4.46078 2.67501V1.78553C4.46078 1.3123 4.27279 0.858456 3.93817 0.523833C3.60355 0.18921 3.1497 0.0012207 2.67647 0.0012207C2.20324 0.0012207 1.7494 0.18921 1.41477 0.523833C1.08015 0.858456 0.89216 1.3123 0.89216 1.78553V2.67367C0.88585 3.18473 0.743005 3.6848 0.478423 4.12209C0.457941 4.15591 0.446819 4.19457 0.446195 4.2341C0.445571 4.27364 0.455468 4.31263 0.474872 4.34708C0.494276 4.38153 0.52249 4.4102 0.556623 4.43016C0.590756 4.45012 0.629581 4.46064 0.669121 4.46066H4.68382C4.72336 4.46064 4.76219 4.45012 4.79632 4.43016C4.83045 4.4102 4.85867 4.38153 4.87807 4.34708C4.89747 4.31263 4.90737 4.27364 4.90675 4.2341C4.90612 4.19457 4.895 4.15591 4.87452 4.12209Z" fill="white"/>
<path d="M2.90105 5.31367C2.99453 5.28036 3.07943 5.22667 3.1496 5.15651C3.21977 5.08634 3.27345 5.00144 3.30676 4.90796H2.04614C2.07564 4.99073 2.12114 5.06689 2.18007 5.13207C2.239 5.19726 2.31018 5.2502 2.38957 5.28787C2.46896 5.32555 2.55498 5.34722 2.64274 5.35164C2.7305 5.35607 2.81828 5.34316 2.90105 5.31367Z" fill="white"/>
</g>
<defs>
<clipPath id="clip0_1009_79062">
<rect width="5.35293" height="5.35293" fill="white"/>
</clipPath>
</defs>
</svg>
