<svg width="48" height="37" viewBox="0 0 48 37" fill="none" xmlns="http://www.w3.org/2000/svg">
<circle cx="24.5342" cy="20.0736" r="16.7279" fill="#E5E2FF"/>
<circle cx="17.1739" cy="1.11519" r="1.11519" fill="#3629B7"/>
<circle cx="44.7193" cy="7.69497" r="2.78799" fill="#FF4267"/>
<circle cx="40.8162" cy="30.3335" r="1.11519" fill="#0890FE"/>
<circle cx="11.598" cy="30.3337" r="2.23039" fill="#FFAF2A"/>
<circle cx="1.11526" cy="15.613" r="1.11519" fill="#52D5BA"/>
<path d="M26.8846 18.5848C26.7468 18.5848 26.6293 18.4709 26.6293 18.3325V16.1106C26.6293 14.9468 25.6891 14.0026 24.5302 14.0026C23.3712 14.0026 22.4311 14.9508 22.4311 16.1106V18.3325C22.4311 18.4709 22.3176 18.5848 22.1758 18.5848H20.7656C20.6278 18.5848 20.5143 18.4709 20.5143 18.3325V16.1106C20.5143 13.8846 22.3176 12.0737 24.5342 12.0737C26.7508 12.0737 28.5541 13.8846 28.5541 16.1106V18.3325C28.5541 18.4709 28.4407 18.5848 28.2988 18.5848H26.8846Z" fill="#5655B9"/>
<path d="M24.5344 12.3259C26.6092 12.3259 28.299 14.0229 28.299 16.1064V18.3283H26.8888V16.1064C26.8888 14.8042 25.8352 13.7421 24.5344 13.7421C23.2376 13.7421 22.18 14.8001 22.18 16.1064V18.3283H20.7698V16.1064C20.7698 14.0229 22.4555 12.3259 24.5344 12.3259ZM24.5344 11.8213C22.18 11.8213 20.2632 13.7461 20.2632 16.1105V18.3324C20.2632 18.6132 20.4902 18.8411 20.7698 18.8411H22.18C22.4596 18.8411 22.6865 18.6132 22.6865 18.3324V16.1105C22.6865 15.0891 23.5132 14.2548 24.5344 14.2548C25.5515 14.2548 26.3822 15.0891 26.3822 16.1105V18.3324C26.3822 18.6132 26.6092 18.8411 26.8888 18.8411H28.299C28.5786 18.8411 28.8055 18.6132 28.8055 18.3324V16.1105C28.8055 13.7421 26.8888 11.8213 24.5344 11.8213Z" fill="white"/>
<path d="M19.8257 27.8548C19.4853 27.8548 19.2097 27.5781 19.2097 27.2362V18.6945C19.2097 18.3526 19.4853 18.0759 19.8257 18.0759H29.2432C29.5836 18.0759 29.8592 18.3526 29.8592 18.6945V27.2322C29.8592 27.574 29.5836 27.8507 29.2432 27.8507H19.8257V27.8548Z" fill="#5655B9"/>
<path d="M29.2432 18.3324C29.4418 18.3324 29.6039 18.4952 29.6039 18.6987V27.2364C29.6039 27.4358 29.4418 27.6026 29.2432 27.6026H19.8257C19.6231 27.6026 19.465 27.4398 19.465 27.2364V18.6946C19.465 18.4952 19.6271 18.3283 19.8257 18.3283H29.2432V18.3324ZM29.2432 17.8237H19.8257C19.3475 17.8237 18.9585 18.2144 18.9585 18.6946V27.2323C18.9585 27.7125 19.3475 28.1031 19.8257 28.1031H29.2432C29.7214 28.1031 30.1104 27.7125 30.1104 27.2323V18.6946C30.1104 18.2144 29.7214 17.8237 29.2432 17.8237Z" fill="white"/>
<path d="M29.2434 18.3325H27.4036V25.0634C27.4036 25.2628 27.2416 25.4256 27.0389 25.4256H19.4611V27.2324C19.4611 27.4318 19.6232 27.5986 19.8218 27.5986H29.2393C29.4379 27.5986 29.6 27.4359 29.6 27.2324V18.6947C29.604 18.4953 29.442 18.3325 29.2434 18.3325Z" fill="#5655B9"/>
<path d="M29.2434 18.3325H28.5545V26.0807C28.5545 26.2842 28.3924 26.4429 28.1898 26.4429H19.4611V27.2365C19.4611 27.4359 19.6232 27.6027 19.8218 27.6027H29.2393C29.4379 27.6027 29.6 27.4399 29.6 27.2365V18.6947C29.604 18.4953 29.442 18.3325 29.2434 18.3325Z" fill="#5655B9"/>
<path d="M24.1268 23.9236C24.1266 23.866 24.0908 23.8143 24.0369 23.7937C23.5142 23.5941 23.1464 23.0876 23.1463 22.4958C23.1463 21.7304 23.7683 21.1093 24.5301 21.1091C25.2958 21.1091 25.9149 21.7301 25.9149 22.4958C25.9147 23.0877 25.546 23.5941 25.0233 23.7937C24.9696 23.8143 24.9345 23.8661 24.9344 23.9236V24.6404C24.9342 24.8651 24.7524 25.0466 24.5301 25.0466C24.3079 25.0465 24.1269 24.865 24.1268 24.6404V23.9236Z" fill="#5655B9" stroke="white" stroke-width="0.278486" stroke-miterlimit="10" stroke-linecap="round" stroke-linejoin="round"/>
</svg>
