<svg width="6" height="6" viewBox="0 0 6 6" fill="none" xmlns="http://www.w3.org/2000/svg">
<g clip-path="url(#clip0_5109_13584)">
<path d="M2.2304 4.23785C1.83339 4.23785 1.44529 4.12012 1.11518 3.89955C0.785073 3.67898 0.527786 3.36547 0.375854 2.99868C0.223923 2.63188 0.184171 2.22827 0.261625 1.83888C0.339079 1.44949 0.53026 1.09182 0.810993 0.811085C1.09173 0.530352 1.4494 0.33917 1.83879 0.261716C2.22818 0.184262 2.63179 0.224014 2.99858 0.375946C3.36538 0.527877 3.67888 0.785165 3.89945 1.11527C4.12002 1.44538 4.23775 1.83348 4.23775 2.2305C4.2371 2.76268 4.02541 3.27288 3.6491 3.64919C3.27279 4.0255 2.76259 4.2372 2.2304 4.23785ZM2.2304 0.669223C1.92161 0.669223 1.61976 0.76079 1.36301 0.932345C1.10626 1.1039 0.906145 1.34774 0.787976 1.63302C0.669807 1.91831 0.638889 2.23223 0.699131 2.53508C0.759373 2.83794 0.90807 3.11613 1.12642 3.33448C1.34477 3.55283 1.62296 3.70153 1.92581 3.76177C2.22867 3.82201 2.54259 3.79109 2.82788 3.67292C3.11316 3.55475 3.357 3.35464 3.52855 3.09789C3.70011 2.84114 3.79168 2.53929 3.79168 2.2305C3.7912 1.81657 3.62656 1.41972 3.33387 1.12703C3.04118 0.834338 2.64433 0.669695 2.2304 0.669223Z" fill="currentColor"/>
<path d="M1.56128 2.23043H1.1152C1.11556 1.93477 1.23317 1.65132 1.44223 1.44226C1.65129 1.2332 1.93474 1.11559 2.2304 1.11523V1.56131C2.05294 1.56131 1.88275 1.63181 1.75726 1.75729C1.63178 1.88278 1.56128 2.05297 1.56128 2.23043Z" fill="currentColor"/>
<path d="M5.06456 4.7493L4.1153 3.80005C4.01999 3.91455 3.91442 4.02011 3.79993 4.11543L4.74918 5.06468C4.79125 5.10531 4.84759 5.12779 4.90607 5.12728C4.96455 5.12677 5.02049 5.10332 5.06184 5.06196C5.10319 5.02061 5.12665 4.96467 5.12716 4.90619C5.12767 4.84771 5.10519 4.79137 5.06456 4.7493Z" fill="currentColor"/>
</g>
<defs>
<clipPath id="clip0_5109_13584">
<rect width="5.35293" height="5.35293" fill="white"/>
</clipPath>
</defs>
</svg>
