<svg width="6" height="6" viewBox="0 0 6 6" fill="none" xmlns="http://www.w3.org/2000/svg">
<g clip-path="url(#clip0_5109_13561)">
<path d="M5.12991 3.01113V2.34201L4.40548 2.24321C4.36287 2.07319 4.29522 1.91045 4.20474 1.76033L4.64725 1.1782L4.17486 0.705132L3.59272 1.14764C3.4426 1.05716 3.27987 0.989512 3.10985 0.946906L3.01104 0.223145H2.34192L2.24312 0.947575C2.0731 0.990181 1.91036 1.05783 1.76024 1.14831L1.17811 0.705132L0.70504 1.1782L1.14755 1.76033C1.05707 1.91045 0.98942 2.07319 0.946814 2.24321L0.223053 2.34201V3.01113L0.947483 3.10994C0.990089 3.27996 1.05774 3.4427 1.14822 3.59282L0.705709 4.17495L1.17877 4.64801L1.76091 4.2055C1.91103 4.29598 2.07377 4.36363 2.24379 4.40624L2.34192 5.13H3.01104L3.10985 4.40557C3.27987 4.36296 3.4426 4.29531 3.59272 4.20483L4.17486 4.64734L4.64792 4.17428L4.20541 3.59215C4.29589 3.44203 4.36354 3.27929 4.40615 3.10927L5.12991 3.01113Z" stroke="#898989" stroke-width="0.334558" stroke-miterlimit="10" stroke-linecap="square"/>
<path d="M2.67647 3.3458C3.04601 3.3458 3.34559 3.04623 3.34559 2.67668C3.34559 2.30714 3.04601 2.00757 2.67647 2.00757C2.30693 2.00757 2.00735 2.30714 2.00735 2.67668C2.00735 3.04623 2.30693 3.3458 2.67647 3.3458Z" stroke="#898989" stroke-width="0.334558" stroke-miterlimit="10" stroke-linecap="square"/>
</g>
<defs>
<clipPath id="clip0_5109_13561">
<rect width="5.35293" height="5.35293" fill="white"/>
</clipPath>
</defs>
</svg>
