<svg width="48" height="37" viewBox="0 0 48 37" fill="none" xmlns="http://www.w3.org/2000/svg">
<circle cx="24.5342" cy="20.0736" r="16.7279" fill="#F2F1F9"/>
<circle cx="17.174" cy="1.11519" r="1.11519" fill="#3629B7"/>
<circle cx="44.7194" cy="7.69497" r="2.78799" fill="#FF4267"/>
<circle cx="40.8161" cy="30.3335" r="1.11519" fill="#0890FE"/>
<circle cx="11.5981" cy="30.3337" r="2.23039" fill="#FFAF2A"/>
<circle cx="1.11519" cy="15.613" r="1.11519" fill="#52D5BA"/>
<g filter="url(#filter0_d_1009_26544)">
<path d="M19.8826 29.8675C19.3934 29.8619 19.001 29.4094 19.0061 28.8567L19.1721 10.8147C19.1772 10.262 19.5779 9.81848 20.067 9.82405L29.0909 9.92685C29.5801 9.93243 29.9725 10.385 29.9674 10.9376L29.8014 28.9797C29.7963 29.5323 29.3956 29.9758 28.9064 29.9703L19.8826 29.8675Z" fill="#5655B9"/>
<path d="M29.0108 10.3174C29.3748 10.3174 29.6689 10.6531 29.6689 11.0685V29.1477C29.6689 29.563 29.3748 29.8987 29.0108 29.8987H20.0576C19.6936 29.8987 19.3994 29.563 19.3994 29.1477V11.0685C19.3994 10.6531 19.6936 10.3174 20.0576 10.3174H29.0108ZM29.0108 9.81396H20.0576C19.4509 9.81396 18.9582 10.3762 18.9582 11.0685V29.1477C18.9582 29.8399 19.4509 30.4022 20.0576 30.4022H29.0108C29.6174 30.4022 30.1101 29.8399 30.1101 29.1477V11.0685C30.1101 10.3762 29.6174 9.81396 29.0108 9.81396Z" fill="white"/>
</g>
<path d="M21.1888 10.4758V10.157H27.7084V10.5356C27.6169 10.7428 27.27 10.8212 27.108 10.8345C25.4971 10.8411 22.1725 10.8504 21.7607 10.8345C21.349 10.8185 21.2079 10.5887 21.1888 10.4758Z" fill="white"/>
<path d="M24.7785 21.7961L24.9875 22.9086H24.0018L24.2637 21.7961H24.7785Z" stroke="white" stroke-width="0.223039" stroke-miterlimit="10" stroke-linecap="round" stroke-linejoin="round"/>
<path d="M24.7783 21.1865V21.7959H24.2635V21.1865H24.4912H24.7783Z" stroke="white" stroke-width="0.223039" stroke-miterlimit="10" stroke-linecap="round" stroke-linejoin="round"/>
<path d="M24.4912 21.02V21.1866H24.2635H23.6658V20.2723L23.7128 20.2534L24.4912 21.02Z" stroke="white" stroke-width="0.223039" stroke-miterlimit="10" stroke-linecap="round" stroke-linejoin="round"/>
<path d="M24.544 17.1743C25.2542 17.1743 25.8294 17.7633 25.8294 18.4886C25.8294 19.2149 25.2542 19.8038 24.544 19.8038C23.8345 19.8038 23.2584 19.2149 23.2584 18.4886C23.2585 17.7633 23.8345 17.1743 24.544 17.1743Z" stroke="white" stroke-width="0.223039" stroke-miterlimit="10" stroke-linecap="round" stroke-linejoin="round"/>
<path d="M25.3771 20.2723V21.1866H24.7784H24.4913V21.02L25.3293 20.2534L25.3771 20.2723Z" stroke="white" stroke-width="0.223039" stroke-miterlimit="10" stroke-linecap="round" stroke-linejoin="round"/>
<path d="M24.2637 21.1867V21.796L24.0017 22.9085L24.0009 22.912H21.9344V21.73V21.729C22.2385 21.6784 22.4693 21.4081 22.4693 21.0834C22.4693 20.9754 22.4434 20.8724 22.3972 20.7821L23.6659 20.2722V21.1866H24.2637V21.1867Z" stroke="white" stroke-width="0.223039" stroke-miterlimit="10" stroke-linecap="round" stroke-linejoin="round"/>
<path d="M22.4693 21.0837C22.4693 21.4082 22.2384 21.6786 21.9344 21.7293C21.9001 21.7353 21.8656 21.7388 21.8295 21.7388C21.4752 21.7388 21.1889 21.4451 21.1889 21.0838C21.1889 20.7233 21.4752 20.4297 21.8295 20.4297C22.0764 20.4297 22.2905 20.5731 22.3972 20.7825C22.4434 20.8725 22.4693 20.9756 22.4693 21.0837Z" stroke="white" stroke-width="0.223039" stroke-miterlimit="10" stroke-linecap="round" stroke-linejoin="round"/>
<path d="M27.216 21.541C27.4426 21.541 27.6281 21.7316 27.6281 21.9633V22.1806H26.8029V21.9633C26.8029 21.7316 26.9883 21.541 27.216 21.541Z" stroke="white" stroke-width="0.223039" stroke-miterlimit="10" stroke-linecap="round" stroke-linejoin="round"/>
<path d="M27.88 22.1807V23.0503C27.88 23.1309 27.8162 23.1963 27.7382 23.1963H26.6844C26.6113 23.1963 26.5517 23.1344 26.5517 23.0597V22.912V22.1807H26.8028H27.628H27.88V22.1807Z" stroke="white" stroke-width="0.223039" stroke-miterlimit="10" stroke-linecap="round" stroke-linejoin="round"/>
<path d="M24.544 17.1743C25.2542 17.1743 25.8294 17.7633 25.8294 18.4886C25.8294 19.2149 25.2542 19.8038 24.544 19.8038C23.8345 19.8038 23.2584 19.2149 23.2584 18.4886C23.2585 17.7633 23.8345 17.1743 24.544 17.1743Z" stroke="white" stroke-width="0.223039" stroke-miterlimit="2.6131" stroke-linecap="round" stroke-linejoin="round"/>
<path d="M22.3971 20.7822L23.6658 20.2723L23.7128 20.2534L24.4913 21.02L25.3292 20.2534L25.377 20.2723L27.1084 20.9686" stroke="white" stroke-width="0.223039" stroke-miterlimit="2.6131" stroke-linecap="round" stroke-linejoin="round"/>
<path d="M24.0009 22.912H21.9344V21.73" stroke="white" stroke-width="0.223039" stroke-miterlimit="2.6131" stroke-linecap="round" stroke-linejoin="round"/>
<path d="M26.5517 22.9121H24.9883" stroke="white" stroke-width="0.223039" stroke-miterlimit="2.6131" stroke-linecap="round" stroke-linejoin="round"/>
<path d="M26.236 21.6897V22.9087H24.9874H24.0017H22.8068V21.6897" stroke="white" stroke-width="0.223039" stroke-miterlimit="2.6131" stroke-linecap="round" stroke-linejoin="round"/>
<path d="M24.2635 21.1866H23.6658V20.2723V20.2534" stroke="white" stroke-width="0.223039" stroke-miterlimit="2.6131" stroke-linecap="round" stroke-linejoin="round"/>
<path d="M25.3769 20.2534V20.2723V21.1866H24.7783" stroke="white" stroke-width="0.223039" stroke-miterlimit="2.6131" stroke-linecap="round" stroke-linejoin="round"/>
<path d="M24.2635 21.7959V21.1865H24.4912H24.7783V21.7959" stroke="white" stroke-width="0.223039" stroke-miterlimit="2.6131" stroke-linecap="round" stroke-linejoin="round"/>
<path d="M24.0008 22.9121H24.9882L24.9873 22.9086L24.7783 21.7961H24.2635L24.0016 22.9086L24.0008 22.9121Z" stroke="white" stroke-width="0.223039" stroke-miterlimit="2.6131" stroke-linecap="round" stroke-linejoin="round"/>
<path d="M27.628 22.1807H27.88V23.0503C27.88 23.1309 27.8162 23.1963 27.7382 23.1963H26.6844C26.6113 23.1963 26.5517 23.1344 26.5517 23.0597V22.912V22.1807H26.8028" stroke="white" stroke-width="0.223039" stroke-miterlimit="2.6131" stroke-linecap="round" stroke-linejoin="round"/>
<path d="M26.8029 22.1806V21.9633C26.8029 21.7316 26.9884 21.541 27.216 21.541C27.4426 21.541 27.6281 21.7316 27.6281 21.9633V22.1806H26.8029Z" stroke="white" stroke-width="0.223039" stroke-miterlimit="2.6131" stroke-linecap="round" stroke-linejoin="round"/>
<path d="M26.9983 22.9069L27.2159 22.6889L27.4324 22.47" stroke="white" stroke-width="0.223039" stroke-miterlimit="2.6131" stroke-linecap="round" stroke-linejoin="round"/>
<path d="M27.4324 22.9069L27.2159 22.6889L26.9983 22.47" stroke="white" stroke-width="0.223039" stroke-miterlimit="2.6131" stroke-linecap="round" stroke-linejoin="round"/>
<path d="M21.9344 21.7293C21.9001 21.7353 21.8656 21.7388 21.8295 21.7388C21.4752 21.7388 21.1889 21.4451 21.1889 21.0838C21.1889 20.7233 21.4752 20.4297 21.8295 20.4297C22.0764 20.4297 22.2905 20.5731 22.3972 20.7825C22.4434 20.8727 22.4693 20.9757 22.4693 21.0839C22.4693 21.4083 22.2385 21.6787 21.9344 21.7293Z" stroke="white" stroke-width="0.223039" stroke-miterlimit="2.6131" stroke-linecap="round" stroke-linejoin="round"/>
<path d="M21.5557 20.9898L21.6884 21.2465L22.241 20.9153" stroke="white" stroke-width="0.223039" stroke-miterlimit="2.6131" stroke-linecap="round" stroke-linejoin="round"/>
<defs>
<filter id="filter0_d_1009_26544" x="15.6126" y="7.36054" width="17.8431" height="27.2793" filterUnits="userSpaceOnUse" color-interpolation-filters="sRGB">
<feFlood flood-opacity="0" result="BackgroundImageFix"/>
<feColorMatrix in="SourceAlpha" type="matrix" values="0 0 0 0 0 0 0 0 0 0 0 0 0 0 0 0 0 0 127 0" result="hardAlpha"/>
<feOffset dy="0.892156"/>
<feGaussianBlur stdDeviation="1.67279"/>
<feColorMatrix type="matrix" values="0 0 0 0 0 0 0 0 0 0 0 0 0 0 0 0 0 0 0.1 0"/>
<feBlend mode="normal" in2="BackgroundImageFix" result="effect1_dropShadow_1009_26544"/>
<feBlend mode="normal" in="SourceGraphic" in2="effect1_dropShadow_1009_26544" result="shape"/>
</filter>
</defs>
</svg>
